G04 EAGLE Gerber RS-274X export*
G75*
%MOMM*%
%FSLAX34Y34*%
%LPD*%
%INSolderpaste Top*%
%IPPOS*%
%AMOC8*
5,1,8,0,0,1.08239X$1,22.5*%
G01*
%ADD10R,1.300000X1.500000*%
%ADD11R,2.032000X0.660400*%
%ADD12R,1.500000X1.300000*%
%ADD13R,0.400000X0.700000*%


D10*
X600100Y101600D03*
X619100Y101600D03*
X689000Y101600D03*
X708000Y101600D03*
X523900Y431800D03*
X542900Y431800D03*
D11*
X108966Y571500D03*
X170434Y571500D03*
X108966Y558800D03*
X108966Y546100D03*
X170434Y558800D03*
X170434Y546100D03*
X108966Y533400D03*
X170434Y533400D03*
X108966Y520700D03*
X108966Y508000D03*
X170434Y520700D03*
X170434Y508000D03*
X108966Y495300D03*
X170434Y495300D03*
X248666Y571500D03*
X310134Y571500D03*
X248666Y558800D03*
X248666Y546100D03*
X310134Y558800D03*
X310134Y546100D03*
X248666Y533400D03*
X310134Y533400D03*
X248666Y520700D03*
X248666Y508000D03*
X310134Y520700D03*
X310134Y508000D03*
X248666Y495300D03*
X310134Y495300D03*
X578866Y508000D03*
X640334Y508000D03*
X578866Y495300D03*
X578866Y482600D03*
X640334Y495300D03*
X640334Y482600D03*
X578866Y469900D03*
X640334Y469900D03*
X578866Y457200D03*
X578866Y444500D03*
X640334Y457200D03*
X640334Y444500D03*
X578866Y431800D03*
X640334Y431800D03*
X172466Y127000D03*
X233934Y127000D03*
X172466Y114300D03*
X172466Y101600D03*
X233934Y114300D03*
X233934Y101600D03*
X172466Y88900D03*
X233934Y88900D03*
X172466Y76200D03*
X172466Y63500D03*
X233934Y76200D03*
X233934Y63500D03*
X172466Y50800D03*
X233934Y50800D03*
X477266Y127000D03*
X538734Y127000D03*
X477266Y114300D03*
X477266Y101600D03*
X538734Y114300D03*
X538734Y101600D03*
X477266Y88900D03*
X538734Y88900D03*
X477266Y76200D03*
X477266Y63500D03*
X538734Y76200D03*
X538734Y63500D03*
X477266Y50800D03*
X538734Y50800D03*
D10*
X117500Y101600D03*
X136500Y101600D03*
D12*
X88900Y295300D03*
X88900Y314300D03*
X88900Y193700D03*
X88900Y212700D03*
X215900Y396900D03*
X215900Y415900D03*
X215900Y295300D03*
X215900Y314300D03*
X215900Y193700D03*
X215900Y212700D03*
X330200Y396900D03*
X330200Y415900D03*
D10*
X117500Y63500D03*
X136500Y63500D03*
X288900Y50800D03*
X269900Y50800D03*
X288900Y114300D03*
X269900Y114300D03*
X422300Y88900D03*
X441300Y88900D03*
X422300Y63500D03*
X441300Y63500D03*
D12*
X88900Y396900D03*
X88900Y415900D03*
D10*
X619100Y50800D03*
X600100Y50800D03*
D12*
X330200Y295300D03*
X330200Y314300D03*
X330200Y193700D03*
X330200Y212700D03*
D10*
X619100Y127000D03*
X600100Y127000D03*
D12*
X812800Y79400D03*
X812800Y98400D03*
D10*
X523900Y495300D03*
X542900Y495300D03*
X987400Y177800D03*
X968400Y177800D03*
X695300Y431800D03*
X676300Y431800D03*
D12*
X368300Y485800D03*
X368300Y504800D03*
X431800Y504800D03*
X431800Y485800D03*
D10*
X396900Y330200D03*
X415900Y330200D03*
D12*
X368300Y549300D03*
X368300Y568300D03*
X431800Y568300D03*
X431800Y549300D03*
D10*
X485800Y228600D03*
X504800Y228600D03*
X396900Y393700D03*
X415900Y393700D03*
X460400Y393700D03*
X479400Y393700D03*
X803300Y368300D03*
X822300Y368300D03*
X695300Y254000D03*
X676300Y254000D03*
X676300Y292100D03*
X695300Y292100D03*
X911200Y431800D03*
X892200Y431800D03*
X695300Y342900D03*
X676300Y342900D03*
X822300Y317500D03*
X803300Y317500D03*
X904900Y469900D03*
X923900Y469900D03*
X441300Y114300D03*
X422300Y114300D03*
X390500Y114300D03*
X371500Y114300D03*
X1139800Y266700D03*
X1120800Y266700D03*
X600100Y25400D03*
X619100Y25400D03*
D12*
X1066800Y441300D03*
X1066800Y422300D03*
D10*
X1133500Y330200D03*
X1152500Y330200D03*
X600100Y76200D03*
X619100Y76200D03*
X689000Y50800D03*
X708000Y50800D03*
D12*
X800100Y257200D03*
X800100Y276200D03*
D10*
X752500Y177800D03*
X771500Y177800D03*
X803300Y177800D03*
X822300Y177800D03*
D13*
X742800Y334400D03*
X749300Y334400D03*
X755800Y334400D03*
X755800Y351400D03*
X742800Y351400D03*
D11*
X451866Y342900D03*
X513334Y342900D03*
X451866Y330200D03*
X451866Y317500D03*
X513334Y330200D03*
X513334Y317500D03*
X451866Y304800D03*
X513334Y304800D03*
X451866Y292100D03*
X451866Y279400D03*
X513334Y292100D03*
X513334Y279400D03*
X451866Y266700D03*
X513334Y266700D03*
X794766Y508000D03*
X856234Y508000D03*
X794766Y495300D03*
X794766Y482600D03*
X856234Y495300D03*
X856234Y482600D03*
X794766Y469900D03*
X856234Y469900D03*
X794766Y457200D03*
X794766Y444500D03*
X856234Y457200D03*
X856234Y444500D03*
X794766Y431800D03*
X856234Y431800D03*
X1023366Y342900D03*
X1084834Y342900D03*
X1023366Y330200D03*
X1023366Y317500D03*
X1084834Y330200D03*
X1084834Y317500D03*
X1023366Y304800D03*
X1084834Y304800D03*
X1023366Y292100D03*
X1023366Y279400D03*
X1084834Y292100D03*
X1084834Y279400D03*
X1023366Y266700D03*
X1084834Y266700D03*
X1188466Y342900D03*
X1249934Y342900D03*
X1188466Y330200D03*
X1188466Y317500D03*
X1249934Y330200D03*
X1249934Y317500D03*
X1188466Y304800D03*
X1249934Y304800D03*
X1188466Y292100D03*
X1188466Y279400D03*
X1249934Y292100D03*
X1249934Y279400D03*
X1188466Y266700D03*
X1249934Y266700D03*
X578866Y342900D03*
X640334Y342900D03*
X578866Y330200D03*
X578866Y317500D03*
X640334Y330200D03*
X640334Y317500D03*
X578866Y304800D03*
X640334Y304800D03*
X578866Y292100D03*
X578866Y279400D03*
X640334Y292100D03*
X640334Y279400D03*
X578866Y266700D03*
X640334Y266700D03*
X959866Y508000D03*
X1021334Y508000D03*
X959866Y495300D03*
X959866Y482600D03*
X1021334Y495300D03*
X1021334Y482600D03*
X959866Y469900D03*
X1021334Y469900D03*
X959866Y457200D03*
X959866Y444500D03*
X1021334Y457200D03*
X1021334Y444500D03*
X959866Y431800D03*
X1021334Y431800D03*
X870966Y342900D03*
X932434Y342900D03*
X870966Y330200D03*
X870966Y317500D03*
X932434Y330200D03*
X932434Y317500D03*
X870966Y304800D03*
X932434Y304800D03*
X870966Y292100D03*
X870966Y279400D03*
X932434Y292100D03*
X932434Y279400D03*
X870966Y266700D03*
X932434Y266700D03*
M02*
