G04 EAGLE Gerber RS-274X export*
G75*
%MOMM*%
%FSLAX34Y34*%
%LPD*%
%INSoldermask Top*%
%IPPOS*%
%AMOC8*
5,1,8,0,0,1.08239X$1,22.5*%
G01*
%ADD10R,1.503200X1.703200*%
%ADD11R,2.235200X0.863600*%
%ADD12R,1.703200X1.503200*%
%ADD13C,1.727200*%
%ADD14R,2.303200X2.303200*%
%ADD15C,3.203200*%
%ADD16R,0.603200X0.903200*%
%ADD17C,0.959600*%


D10*
X600100Y101600D03*
X619100Y101600D03*
X689000Y101600D03*
X708000Y101600D03*
X523900Y431800D03*
X542900Y431800D03*
D11*
X108966Y571500D03*
X170434Y571500D03*
X108966Y558800D03*
X108966Y546100D03*
X170434Y558800D03*
X170434Y546100D03*
X108966Y533400D03*
X170434Y533400D03*
X108966Y520700D03*
X108966Y508000D03*
X170434Y520700D03*
X170434Y508000D03*
X108966Y495300D03*
X170434Y495300D03*
X248666Y571500D03*
X310134Y571500D03*
X248666Y558800D03*
X248666Y546100D03*
X310134Y558800D03*
X310134Y546100D03*
X248666Y533400D03*
X310134Y533400D03*
X248666Y520700D03*
X248666Y508000D03*
X310134Y520700D03*
X310134Y508000D03*
X248666Y495300D03*
X310134Y495300D03*
X578866Y508000D03*
X640334Y508000D03*
X578866Y495300D03*
X578866Y482600D03*
X640334Y495300D03*
X640334Y482600D03*
X578866Y469900D03*
X640334Y469900D03*
X578866Y457200D03*
X578866Y444500D03*
X640334Y457200D03*
X640334Y444500D03*
X578866Y431800D03*
X640334Y431800D03*
X172466Y127000D03*
X233934Y127000D03*
X172466Y114300D03*
X172466Y101600D03*
X233934Y114300D03*
X233934Y101600D03*
X172466Y88900D03*
X233934Y88900D03*
X172466Y76200D03*
X172466Y63500D03*
X233934Y76200D03*
X233934Y63500D03*
X172466Y50800D03*
X233934Y50800D03*
X477266Y127000D03*
X538734Y127000D03*
X477266Y114300D03*
X477266Y101600D03*
X538734Y114300D03*
X538734Y101600D03*
X477266Y88900D03*
X538734Y88900D03*
X477266Y76200D03*
X477266Y63500D03*
X538734Y76200D03*
X538734Y63500D03*
X477266Y50800D03*
X538734Y50800D03*
D10*
X117500Y101600D03*
X136500Y101600D03*
D12*
X88900Y295300D03*
X88900Y314300D03*
X88900Y193700D03*
X88900Y212700D03*
X215900Y396900D03*
X215900Y415900D03*
X215900Y295300D03*
X215900Y314300D03*
X215900Y193700D03*
X215900Y212700D03*
X330200Y396900D03*
X330200Y415900D03*
D10*
X117500Y63500D03*
X136500Y63500D03*
X288900Y50800D03*
X269900Y50800D03*
X288900Y114300D03*
X269900Y114300D03*
X422300Y88900D03*
X441300Y88900D03*
X422300Y63500D03*
X441300Y63500D03*
D12*
X88900Y396900D03*
X88900Y415900D03*
D13*
X190500Y248920D02*
X190500Y233680D01*
X215900Y233680D02*
X215900Y248920D01*
X241300Y248920D02*
X241300Y233680D01*
X304800Y436880D02*
X304800Y452120D01*
X330200Y452120D02*
X330200Y436880D01*
X355600Y436880D02*
X355600Y452120D01*
D10*
X619100Y50800D03*
X600100Y50800D03*
D12*
X330200Y295300D03*
X330200Y314300D03*
X330200Y193700D03*
X330200Y212700D03*
D13*
X304800Y335280D02*
X304800Y350520D01*
X330200Y350520D02*
X330200Y335280D01*
X355600Y335280D02*
X355600Y350520D01*
X190500Y350520D02*
X190500Y335280D01*
X215900Y335280D02*
X215900Y350520D01*
X241300Y350520D02*
X241300Y335280D01*
X190500Y436880D02*
X190500Y452120D01*
X215900Y452120D02*
X215900Y436880D01*
X241300Y436880D02*
X241300Y452120D01*
X63500Y248920D02*
X63500Y233680D01*
X88900Y233680D02*
X88900Y248920D01*
X114300Y248920D02*
X114300Y233680D01*
X63500Y436880D02*
X63500Y452120D01*
X88900Y452120D02*
X88900Y436880D01*
X114300Y436880D02*
X114300Y452120D01*
X63500Y350520D02*
X63500Y335280D01*
X88900Y335280D02*
X88900Y350520D01*
X114300Y350520D02*
X114300Y335280D01*
D10*
X619100Y127000D03*
X600100Y127000D03*
D13*
X304800Y233680D02*
X304800Y248920D01*
X330200Y248920D02*
X330200Y233680D01*
X355600Y233680D02*
X355600Y248920D01*
D14*
X596900Y671000D03*
X596900Y726000D03*
D15*
X643900Y721400D03*
X549900Y721400D03*
D12*
X812800Y79400D03*
X812800Y98400D03*
D10*
X523900Y495300D03*
X542900Y495300D03*
X987400Y177800D03*
X968400Y177800D03*
X695300Y431800D03*
X676300Y431800D03*
D12*
X368300Y485800D03*
X368300Y504800D03*
X431800Y504800D03*
X431800Y485800D03*
D10*
X396900Y330200D03*
X415900Y330200D03*
D12*
X368300Y549300D03*
X368300Y568300D03*
X431800Y568300D03*
X431800Y549300D03*
D10*
X485800Y228600D03*
X504800Y228600D03*
X396900Y393700D03*
X415900Y393700D03*
X460400Y393700D03*
X479400Y393700D03*
X803300Y368300D03*
X822300Y368300D03*
X695300Y254000D03*
X676300Y254000D03*
X676300Y292100D03*
X695300Y292100D03*
X911200Y431800D03*
X892200Y431800D03*
X695300Y342900D03*
X676300Y342900D03*
X822300Y317500D03*
X803300Y317500D03*
X904900Y469900D03*
X923900Y469900D03*
X441300Y114300D03*
X422300Y114300D03*
X390500Y114300D03*
X371500Y114300D03*
X1139800Y266700D03*
X1120800Y266700D03*
X600100Y25400D03*
X619100Y25400D03*
D12*
X1066800Y441300D03*
X1066800Y422300D03*
D10*
X1133500Y330200D03*
X1152500Y330200D03*
X600100Y76200D03*
X619100Y76200D03*
X689000Y50800D03*
X708000Y50800D03*
D12*
X800100Y257200D03*
X800100Y276200D03*
D10*
X752500Y177800D03*
X771500Y177800D03*
X803300Y177800D03*
X822300Y177800D03*
D16*
X742800Y334400D03*
X749300Y334400D03*
X755800Y334400D03*
X755800Y351400D03*
X742800Y351400D03*
D11*
X451866Y342900D03*
X513334Y342900D03*
X451866Y330200D03*
X451866Y317500D03*
X513334Y330200D03*
X513334Y317500D03*
X451866Y304800D03*
X513334Y304800D03*
X451866Y292100D03*
X451866Y279400D03*
X513334Y292100D03*
X513334Y279400D03*
X451866Y266700D03*
X513334Y266700D03*
X794766Y508000D03*
X856234Y508000D03*
X794766Y495300D03*
X794766Y482600D03*
X856234Y495300D03*
X856234Y482600D03*
X794766Y469900D03*
X856234Y469900D03*
X794766Y457200D03*
X794766Y444500D03*
X856234Y457200D03*
X856234Y444500D03*
X794766Y431800D03*
X856234Y431800D03*
X1023366Y342900D03*
X1084834Y342900D03*
X1023366Y330200D03*
X1023366Y317500D03*
X1084834Y330200D03*
X1084834Y317500D03*
X1023366Y304800D03*
X1084834Y304800D03*
X1023366Y292100D03*
X1023366Y279400D03*
X1084834Y292100D03*
X1084834Y279400D03*
X1023366Y266700D03*
X1084834Y266700D03*
X1188466Y342900D03*
X1249934Y342900D03*
X1188466Y330200D03*
X1188466Y317500D03*
X1249934Y330200D03*
X1249934Y317500D03*
X1188466Y304800D03*
X1249934Y304800D03*
X1188466Y292100D03*
X1188466Y279400D03*
X1249934Y292100D03*
X1249934Y279400D03*
X1188466Y266700D03*
X1249934Y266700D03*
X578866Y342900D03*
X640334Y342900D03*
X578866Y330200D03*
X578866Y317500D03*
X640334Y330200D03*
X640334Y317500D03*
X578866Y304800D03*
X640334Y304800D03*
X578866Y292100D03*
X578866Y279400D03*
X640334Y292100D03*
X640334Y279400D03*
X578866Y266700D03*
X640334Y266700D03*
X959866Y508000D03*
X1021334Y508000D03*
X959866Y495300D03*
X959866Y482600D03*
X1021334Y495300D03*
X1021334Y482600D03*
X959866Y469900D03*
X1021334Y469900D03*
X959866Y457200D03*
X959866Y444500D03*
X1021334Y457200D03*
X1021334Y444500D03*
X959866Y431800D03*
X1021334Y431800D03*
X870966Y342900D03*
X932434Y342900D03*
X870966Y330200D03*
X870966Y317500D03*
X932434Y330200D03*
X932434Y317500D03*
X870966Y304800D03*
X932434Y304800D03*
X870966Y292100D03*
X870966Y279400D03*
X932434Y292100D03*
X932434Y279400D03*
X870966Y266700D03*
X932434Y266700D03*
D14*
X333600Y671000D03*
X291600Y671000D03*
X249600Y671000D03*
X207600Y671000D03*
X165600Y671000D03*
X123600Y671000D03*
X123600Y726000D03*
X249600Y726000D03*
X207600Y726000D03*
X165600Y726000D03*
X291600Y726000D03*
X333600Y726000D03*
D15*
X380600Y721400D03*
X76600Y721400D03*
D14*
X998400Y671000D03*
X956400Y671000D03*
X914400Y671000D03*
X872400Y671000D03*
X830400Y671000D03*
X872400Y726000D03*
X830400Y726000D03*
X914400Y726000D03*
X956400Y726000D03*
X998400Y726000D03*
D15*
X1045400Y721400D03*
X783400Y721400D03*
D17*
X774700Y431800D03*
X762000Y393700D03*
X1028700Y406400D03*
X1041400Y368300D03*
X1130300Y355600D03*
X800100Y228600D03*
X850900Y203200D03*
X241300Y292100D03*
X266700Y317500D03*
X342900Y596900D03*
X228600Y609600D03*
X266700Y152400D03*
X546100Y152400D03*
X546100Y355600D03*
X685800Y381000D03*
X876300Y546100D03*
X1066800Y520700D03*
X965200Y368300D03*
X698500Y508000D03*
X1231900Y406400D03*
X1092200Y381000D03*
X908304Y271780D03*
X676656Y99568D03*
X915924Y305308D03*
X827532Y415036D03*
X714756Y424180D03*
X594360Y485140D03*
X748284Y305562D03*
X915924Y294640D03*
X86868Y501904D03*
X92964Y530860D03*
X115824Y581152D03*
X124968Y546100D03*
X153924Y533908D03*
X556514Y34544D03*
X493776Y73660D03*
X443484Y186436D03*
X341376Y474472D03*
X123444Y393700D03*
X150876Y131572D03*
X294132Y521716D03*
X156972Y114808D03*
X393192Y379984D03*
X694944Y227076D03*
X256286Y73660D03*
X286512Y355600D03*
X567436Y75184D03*
X233172Y521716D03*
X265176Y508000D03*
X621792Y369316D03*
X822960Y340360D03*
X559308Y433324D03*
X496824Y317500D03*
X656844Y480568D03*
X1040892Y279400D03*
X833628Y469900D03*
X735838Y313182D03*
X800100Y125476D03*
X720852Y613156D03*
X748284Y541528D03*
X733044Y359664D03*
X326136Y533908D03*
X624840Y497332D03*
X717550Y352298D03*
X810768Y468376D03*
X822960Y331216D03*
X664464Y331216D03*
X736092Y439420D03*
X426720Y128524D03*
X943356Y456184D03*
X975360Y349504D03*
X656336Y26416D03*
X906780Y285496D03*
X975360Y399796D03*
X1005840Y442468D03*
X1136904Y411988D03*
X706120Y24384D03*
X886968Y343408D03*
X1171956Y319024D03*
X886968Y291592D03*
X1234440Y277876D03*
X342900Y495808D03*
X662940Y431800D03*
X821436Y394208D03*
X810768Y492760D03*
X656844Y267208D03*
X723900Y266700D03*
X731520Y288290D03*
X711200Y304800D03*
X698500Y317500D03*
X969264Y383032D03*
X943356Y469900D03*
X1226820Y267208D03*
X854964Y305308D03*
X754380Y378460D03*
X775716Y568960D03*
X554736Y663448D03*
X713232Y607060D03*
X722884Y340360D03*
X818388Y546100D03*
X710184Y343408D03*
X786384Y575056D03*
X978408Y593344D03*
X894588Y349504D03*
X917448Y575056D03*
X854964Y315976D03*
X824484Y561340D03*
X167640Y253492D03*
X944880Y501904D03*
X944880Y575056D03*
X944880Y593344D03*
M02*
